<svg width="152" height="51" viewBox="0 0 152 51" fill="none" xmlns="http://www.w3.org/2000/svg">
<path d="M0.33831 23.0732V0H13.1493C15.4672 0 17.3152 0.516957 18.6934 1.55087C20.0716 2.58478 20.7607 4.16731 20.7607 6.29843C20.7607 7.71215 20.4057 8.91487 19.6958 9.90658C19.0067 10.8983 17.9834 11.5841 16.6261 11.9639V12.1854C17.9208 12.3964 18.8396 12.8923 19.3825 13.673C19.9463 14.4326 20.2282 15.4771 20.2282 16.8064V20.6044C20.2282 21.0053 20.2387 21.4168 20.2596 21.8388C20.3013 22.2397 20.4057 22.6512 20.5728 23.0732H17.6598C17.5136 22.7567 17.4196 22.398 17.3779 21.997C17.3361 21.575 17.3152 21.0897 17.3152 20.5411V17.2178C17.3152 16.3949 17.1899 15.6986 16.9394 15.1289C16.7097 14.5592 16.2816 14.1266 15.6551 13.8312C15.0287 13.5358 14.1308 13.3881 12.9614 13.3881H3.25132V23.0732H0.33831ZM3.25132 11.141H12.6481C14.5275 11.141 15.8535 10.7189 16.6261 9.87493C17.3988 9.03092 17.7851 7.94426 17.7851 6.61494C17.7851 5.11682 17.3152 4.0407 16.3755 3.3866C15.4359 2.71139 14.1934 2.37378 12.6481 2.37378H3.25132V11.141Z" fill="white"/>
<path d="M25.1824 23.0732V0H43.5688V2.43708H28.0954V10.1598H42.034V12.4386H28.0954V20.6044H43.6001V23.0732H25.1824Z" fill="white"/>
<path d="M46.3751 23.0732L57.0875 0H60.8149L71.5586 23.0732H68.395L65.7952 17.4394H52.1072L49.5074 23.0732H46.3751ZM53.0469 15.1606H64.8869L60.2824 5.34892L59.0295 2.53203H58.9042L57.6513 5.41222L53.0469 15.1606Z" fill="white"/>
<path d="M75.5129 23.0732V0H85.6927C88.1777 0 90.2972 0.485307 92.0513 1.45592C93.8053 2.40543 95.1418 3.7453 96.0606 5.47552C96.9794 7.20575 97.4388 9.23137 97.4388 11.5524C97.4388 13.9367 96.9585 15.994 95.9979 17.7242C95.0582 19.4334 93.7114 20.7521 91.9573 21.6805C90.2032 22.609 88.115 23.0732 85.6927 23.0732H75.5129ZM78.3945 20.6677H85.2855C88.2716 20.6677 90.5478 19.8448 92.1139 18.199C93.7009 16.5321 94.4944 14.2954 94.4944 11.4891C94.4944 8.51396 93.6592 6.25623 91.9886 4.71591C90.3181 3.17559 88.0837 2.40543 85.2855 2.40543H78.3945V20.6677Z" fill="white"/>
<path d="M102.193 23.0732V0H106.672L114.973 19.4334H115.067L123.398 0H127.878V23.0732H125.121V11.4258L125.215 3.00679H124.965L116.351 23.0732H113.657L105.075 3.00679H104.887L104.949 11.4891V23.0732H102.193Z" fill="white"/>
<path d="M133.582 23.0732V0H151.969V2.43708H136.495V10.1598H150.434V12.4386H136.495V20.6044H152V23.0732H133.582Z" fill="white"/>
<path d="M6.35851 51L0 27.9268H5.98264L8.98962 40.3655L10.0546 45.5878H10.3678L14.753 27.9268H20.673L25.1208 45.6511H25.4027L26.4677 40.2072L29.412 27.9268H35.2067L29.0048 51H21.9572L17.7287 34.7H17.5094L13.4061 51H6.35851Z" fill="#D78DFF"/>
<path d="M37.0854 51V27.9268H42.5355V51H37.0854Z" fill="#D78DFF"/>
<path d="M45.2604 51V46.6322L58.7291 32.3263H45.8242V27.9268H65.4948V32.3263L51.9947 46.6322H65.8394V51H45.2604Z" fill="#D78DFF"/>
<path d="M66.7137 51L76.4864 27.9268H83.5654L93.3694 51H87.4494L85.57 46.379H74.4504L72.6024 51H66.7137ZM75.9853 42.2645H84.0978L81.1222 35.1115L80.1199 32.3896H79.9319L78.9296 35.0798L75.9853 42.2645Z" fill="#D78DFF"/>
<path d="M95.2343 51V27.9268H108.703C110.311 27.9268 111.762 28.1484 113.057 28.5915C114.372 29.0346 115.406 29.752 116.158 30.7437C116.91 31.7354 117.285 33.0648 117.285 34.7317C117.285 36.1032 116.92 37.3059 116.189 38.3398C115.479 39.3526 114.456 40.0279 113.12 40.3655V40.587C114.352 40.798 115.26 41.2728 115.845 42.0113C116.429 42.7498 116.722 43.7837 116.722 45.113V48.2781C116.722 48.7212 116.732 49.1748 116.753 49.639C116.795 50.0821 116.92 50.5358 117.129 51H111.647C111.397 50.4725 111.272 49.5652 111.272 48.2781V45.9043C111.272 44.9126 111.031 44.1424 110.551 43.5938C110.092 43.0452 109.173 42.7709 107.795 42.7709H100.684V51H95.2343ZM100.684 38.7829H107.607C109.173 38.7829 110.259 38.4664 110.864 37.8334C111.47 37.1793 111.773 36.3459 111.773 35.333C111.773 34.1303 111.386 33.2969 110.614 32.8327C109.862 32.3474 108.86 32.1047 107.607 32.1047H100.684V38.7829Z" fill="#D78DFF"/>
<path d="M119.858 51V27.9268H130.852C133.504 27.9268 135.718 28.4121 137.493 29.3828C139.268 30.3323 140.604 31.6721 141.502 33.4024C142.4 35.1326 142.849 37.1582 142.849 39.4792C142.849 41.9691 142.358 44.0791 141.377 45.8093C140.395 47.5185 139.007 48.8161 137.211 49.7023C135.415 50.5674 133.296 51 130.852 51H119.858ZM125.308 46.6955H129.787C132.419 46.6955 134.329 46.052 135.519 44.7649C136.731 43.4778 137.336 41.6842 137.336 39.3843C137.336 37.6752 137.023 36.2931 136.397 35.2381C135.77 34.1831 134.883 33.4129 133.734 32.9276C132.606 32.4423 131.291 32.1996 129.787 32.1996H125.308V46.6955Z" fill="#D78DFF"/>
<path d="M144.894 51V46.7272H150.062V51H144.894Z" fill="#D78DFF"/>
</svg>
